<svg xmlns="http://www.w3.org/2000/svg" width="256" height="256" viewBox="0 0 256 256">
  <defs>
    <linearGradient id="bg" x1="0" y1="0" x2="1" y2="1">
      <stop offset="0%" stop-color="#0b0f13"/>
      <stop offset="100%" stop-color="#182432"/>
    </linearGradient>
    <linearGradient id="accent" x1="0" y1="0" x2="1" y2="1">
      <stop offset="0%" stop-color="#7df9d3"/>
      <stop offset="100%" stop-color="#5fd9ff"/>
    </linearGradient>
  </defs>
  <rect width="256" height="256" rx="28" fill="url(#bg)"/>

  <!-- Techy hexagon frame -->
  <g fill="none" stroke="url(#accent)" stroke-width="10" stroke-linecap="round" stroke-linejoin="round" opacity="0.95">
    <polygon points="128,36 197,76 197,156 128,196 59,156 59,76"/>
  </g>

  <!-- Circuit traces -->
  <g fill="none" stroke="url(#accent)" stroke-width="6" stroke-linecap="round" opacity="0.9">
    <path d="M86 92 L128 116 L170 92"/>
    <path d="M86 164 L128 140 L170 164"/>
    <path d="M128 64 L128 192" opacity="0.85"/>
  </g>

  <!-- Nodes -->
  <g fill="#aef7ff" opacity="0.95">
    <circle cx="86" cy="92" r="5"/>
    <circle cx="128" cy="116" r="5"/>
    <circle cx="170" cy="92" r="5"/>
    <circle cx="86" cy="164" r="5"/>
    <circle cx="128" cy="140" r="5"/>
    <circle cx="170" cy="164" r="5"/>
  </g>

  <!-- Subtle inner glow ring -->
  <circle cx="128" cy="128" r="86" fill="none" stroke="#76e8ff" stroke-opacity="0.18" stroke-width="12"/>
</svg>

